# xmcd
#
# Track frame offsets:
#	150
#	12727
#	20553
#	32354
#	43442
#	56186
#	68493
#	78047
#	91778
#	103196
#
# Disc length: 1502 seconds
#
# Revision: 0
# Processed by: cddbd v1.5.2PL0 Copyright (c) Steve Scherf et al.
# Submitted via: AudioConverter v5.0 Copyright (c) Ultimate Shareware Ltd
#
DISCID=7a05dc0a
DTITLE=Hank Williams - Hall of Fame - Hank Williams
DYEAR=2006
DGENRE=Country
TTITLE0=Lovesick Blues
TTITLE1=I Can't Get You Off My Mind
TTITLE2=I'm So Lonesome I Could Cry
TTITLE3=Mind Your Own Business
TTITLE4=There'll Be No Teardrops Tonight
TTITLE5=Pan American
TTITLE6=I'll Have A New Body (I'll Have A New Life)
TTITLE7=Lost Highway
TTITLE8=I'm A Long Gone Daddy
TTITLE9=I Saw The Light
EXTD=
EXTT0=
EXTT1=
EXTT2=
EXTT3=
EXTT4=
EXTT5=
EXTT6=
EXTT7=
EXTT8=
EXTT9=
PLAYORDER=
